<?xml version="1.0" encoding="utf-8"?>
<!-- Generator: Adobe Illustrator 15.1.0, SVG Export Plug-In . SVG Version: 6.00 Build 0)  -->
<!DOCTYPE svg PUBLIC "-//W3C//DTD SVG 1.1//EN" "http://www.w3.org/Graphics/SVG/1.1/DTD/svg11.dtd">
<svg version="1.1" id="Ebene_1" xmlns="http://www.w3.org/2000/svg" xmlns:xlink="http://www.w3.org/1999/xlink" x="0px" y="0px"
	 width="48px" height="48px" viewBox="0 0 48 48" enable-background="new 0 0 48 48" xml:space="preserve">
<ellipse fill="#877FFF" cx="24" cy="25.217" rx="24" ry="17.817"/>
<g>
	<polyline fill="#FFFFFF" points="11.787,31.505 16.762,28.31 20.999,28.46 24.335,26.2 26.548,27.302 22.059,30.939 26.257,31.784 
		30.729,30.615 34.226,28.501 36.632,28.905 35.264,31.979 31.825,36.558 20.476,37.835 17.142,36.593 12.744,36.316 	"/>
	<path fill="#1D1D1B" d="M11.719,31.399c0.733-0.682,1.494-1.321,2.262-1.948c0.771-0.623,1.546-1.24,2.339-1.83l0.154-0.114
		l0.317-0.015c1.416-0.064,2.831-0.072,4.245-0.087l-0.629,0.181c1.101-0.77,2.174-1.579,3.302-2.31l0.55-0.357l0.574,0.282
		c0.74,0.363,1.458,0.77,2.177,1.172l1.467,0.819l-1.275,0.915c-1.568,1.125-3.213,2.154-4.801,3.254l-0.235-0.954
		c1.376,0.396,2.767,0.722,4.166,1.007l-0.17,0.005c0.741-0.211,1.489-0.396,2.225-0.63c0.738-0.219,1.473-0.455,2.205-0.701
		l-0.145,0.061l3.33-2.39l0.2-0.145l0.393,0.031c0.814,0.063,1.624,0.154,2.435,0.235l1.3,0.132l-0.523,1.314l-1.244,3.13
		l-0.033,0.083l-0.101,0.145c-1.094,1.565-2.189,3.13-3.313,4.672l-0.327,0.448l-0.588,0.074c-1.889,0.24-3.784,0.415-5.683,0.569
		c-1.899,0.145-3.801,0.263-5.708,0.344l-0.298,0.013l-0.146-0.067c-1.08-0.497-2.162-0.991-3.229-1.521l0.19,0.041
		c-0.729-0.112-1.456-0.244-2.183-0.384c-0.728-0.135-1.455-0.267-2.18-0.432l0.016-0.25c0.74-0.073,1.479-0.112,2.217-0.155
		c0.739-0.047,1.477-0.087,2.214-0.107h0.031l0.16,0.041c1.154,0.298,2.295,0.632,3.438,0.963l-0.444-0.055
		c1.876-0.345,3.757-0.652,5.642-0.934c1.885-0.271,3.771-0.522,5.667-0.708l-0.915,0.522c1.168-1.51,2.365-2.997,3.563-4.484
		l-0.134,0.228l1.491-3.019l0.777,1.446c-0.793-0.188-1.588-0.367-2.378-0.573l0.593-0.113l-3.664,1.839l-0.107,0.054l-0.037,0.007
		c-0.759,0.144-1.515,0.297-2.267,0.468c-0.755,0.155-1.498,0.359-2.247,0.539l-0.089,0.021l-0.081-0.016
		c-1.4-0.278-2.809-0.516-4.231-0.683l-1.107-0.13l0.873-0.824c1.404-1.325,2.752-2.722,4.177-4.021l0.191,1.734
		c-0.756-0.332-1.513-0.66-2.249-1.031l1.124-0.075c-1.097,0.776-2.247,1.473-3.37,2.21l-0.315,0.206l-0.314-0.025
		c-1.41-0.114-2.82-0.224-4.229-0.388l0.471-0.129c-0.866,0.475-1.75,0.923-2.637,1.365c-0.89,0.438-1.788,0.863-2.713,1.247
		L11.719,31.399z"/>
</g>
<g>
	<path fill="#FFFFFF" d="M91.809,26.712c0,5.347-7.062,9.68-15.773,9.68c-1.719,0-2.212-0.217-3.762-0.529
		c-0.608-0.124-5.65,2.166-7.244,1.447c0.821-1.039,2.143-2.556,1.188-3.022c-3.627-1.773-5.951-4.506-5.951-7.575
		c0-5.346,7.061-9.68,15.77-9.68C84.747,17.032,91.809,21.366,91.809,26.712z"/>
	<path fill="#1D1D1B" d="M91.934,26.713c0.002,1.347-0.494,2.655-1.227,3.761c-0.746,1.106-1.722,2.042-2.794,2.831
		c-2.172,1.555-4.709,2.562-7.323,3.143c-1.313,0.276-2.65,0.444-3.992,0.512c-0.666,0.03-1.35,0.054-2.057-0.014
		c-0.709-0.069-1.372-0.23-2.002-0.35l-0.238-0.046l-0.118-0.022l-0.03-0.006l-0.007-0.001c-0.068-0.01,0.085,0.012,0.065,0.01
		l-0.015-0.001c-0.013,0-0.058-0.005-0.046,0c0.092,0.008,0,0.009-0.057,0.027l-0.203,0.056c-0.289,0.086-0.598,0.192-0.906,0.299
		L69.1,37.55c-0.641,0.204-1.294,0.394-1.984,0.534c-0.348,0.069-0.703,0.126-1.09,0.146c-0.387,0.012-0.808,0.017-1.326-0.19
		l-0.949-0.379l0.65-0.849c0.352-0.459,0.693-0.89,0.967-1.314c0.134-0.208,0.25-0.422,0.303-0.578
		c0.025-0.074,0.031-0.136,0.025-0.117c-0.013,0.015,0.025,0.155,0.091,0.218c0.032,0.031,0.045,0.041,0.05,0.043l-0.188-0.09
		l-0.396-0.198c-0.271-0.139-0.529-0.282-0.79-0.434c-0.517-0.305-1.021-0.64-1.503-1.011c-0.961-0.742-1.848-1.633-2.53-2.713
		c-0.682-1.071-1.144-2.353-1.203-3.684c-0.072-1.329,0.265-2.672,0.87-3.821c0.602-1.159,1.439-2.141,2.369-2.97
		c1.87-1.666,4.122-2.703,6.406-3.418c4.611-1.324,9.562-1.23,14.019,0.361c2.215,0.799,4.333,1.934,6.053,3.537
		C90.636,22.195,92,24.356,91.934,26.713z M91.684,26.711c-0.03-1.109-0.375-2.195-0.967-3.123c-0.599-0.923-1.38-1.723-2.281-2.349
		c-1.798-1.267-3.893-2.04-6.021-2.481c-4.267-0.823-8.718-0.702-12.81,0.466c-2.045,0.568-3.994,1.475-5.592,2.74
		c-1.59,1.256-2.737,3.014-2.7,4.905c-0.009,1.89,1.177,3.708,2.792,5.023c0.404,0.333,0.834,0.644,1.283,0.929
		c0.225,0.141,0.457,0.281,0.685,0.408l0.356,0.193l0.191,0.102c0.129,0.069,0.264,0.154,0.393,0.29
		c0.271,0.26,0.401,0.691,0.389,0.986c-0.006,0.303-0.077,0.52-0.148,0.71c-0.148,0.373-0.326,0.647-0.505,0.91
		c-0.358,0.516-0.741,0.957-1.092,1.386l-0.299-1.228c0.22,0.118,0.907,0.104,1.48-0.004c0.603-0.101,1.222-0.255,1.841-0.429
		l1.873-0.563c0.317-0.097,0.635-0.195,0.979-0.285l0.275-0.063c0.104-0.017,0.174-0.045,0.43-0.048l0.078,0.005l0.104,0.016
		l0.031,0.007l0.123,0.027l0.244,0.056c1.319,0.35,2.424,0.528,3.756,0.514c1.287,0.012,2.578-0.073,3.854-0.266
		c2.547-0.365,5.094-1.125,7.278-2.545c1.091-0.699,2.089-1.574,2.818-2.651C91.27,29.287,91.694,28.005,91.684,26.711z"/>
</g>
<g>
	<path fill="#FFFFFF" d="M72.416,24.87c0,5.347,7.061,9.681,15.771,9.681c1.719,0,2.215-0.219,3.763-0.529
		c0.608-0.124,5.65,2.164,7.243,1.447c-0.822-1.041-2.14-2.558-1.188-3.023c3.627-1.774,5.953-4.509,5.953-7.575
		c0-5.346-7.062-9.68-15.771-9.68C79.477,15.19,72.416,19.524,72.416,24.87z"/>
	<path fill="#1D1D1B" d="M72.541,24.869c-0.01,1.294,0.414,2.577,1.16,3.639c0.73,1.077,1.728,1.953,2.818,2.652
		c2.185,1.419,4.73,2.18,7.277,2.545c1.276,0.192,2.566,0.277,3.853,0.266c1.333,0.015,2.437-0.166,3.757-0.514l0.245-0.056
		l0.123-0.027l0.03-0.007l0.104-0.016l0.075-0.005c0.255,0.002,0.329,0.031,0.433,0.047l0.274,0.064
		c0.345,0.09,0.661,0.188,0.979,0.284l1.873,0.563c0.619,0.174,1.238,0.328,1.841,0.429c0.572,0.107,1.261,0.123,1.48,0.005
		l-0.3,1.227c-0.351-0.429-0.732-0.87-1.091-1.387c-0.178-0.262-0.355-0.536-0.504-0.91c-0.071-0.189-0.143-0.406-0.148-0.708
		c-0.013-0.294,0.114-0.726,0.388-0.987c0.129-0.136,0.264-0.221,0.393-0.291l0.192-0.102l0.355-0.192
		c0.229-0.127,0.46-0.269,0.685-0.408c0.449-0.286,0.878-0.596,1.282-0.93c1.615-1.315,2.802-3.133,2.794-5.022
		c0.038-1.891-1.11-3.648-2.699-4.904c-1.598-1.265-3.548-2.172-5.592-2.74c-4.092-1.168-8.544-1.289-12.81-0.466
		c-2.128,0.44-4.224,1.213-6.021,2.48c-0.901,0.626-1.682,1.426-2.281,2.349C72.916,22.674,72.572,23.759,72.541,24.869z
		 M72.291,24.872c-0.066-2.357,1.298-4.518,2.992-6.09c1.719-1.603,3.837-2.737,6.052-3.537c4.457-1.591,9.407-1.685,14.018-0.361
		c2.285,0.715,4.536,1.752,6.406,3.418c0.931,0.829,1.769,1.811,2.369,2.969c0.605,1.149,0.942,2.493,0.87,3.822
		c-0.06,1.332-0.522,2.611-1.204,3.683c-0.683,1.079-1.569,1.97-2.531,2.712c-0.482,0.371-0.985,0.707-1.502,1.011
		c-0.261,0.151-0.518,0.295-0.789,0.434l-0.397,0.198l-0.187,0.091c0.005-0.003,0.017-0.013,0.05-0.044
		c0.065-0.063,0.104-0.204,0.09-0.218c-0.004-0.018,0,0.044,0.027,0.118c0.053,0.156,0.168,0.371,0.303,0.579
		c0.271,0.425,0.614,0.856,0.965,1.314l0.649,0.85l-0.949,0.378c-0.519,0.207-0.94,0.202-1.327,0.189
		c-0.385-0.021-0.741-0.077-1.088-0.146c-0.69-0.141-1.344-0.33-1.984-0.534l-1.886-0.639c-0.307-0.105-0.616-0.212-0.905-0.298
		l-0.203-0.056c-0.058-0.02-0.146-0.019-0.055-0.027c0.008-0.004-0.033,0-0.048,0l-0.016,0.001c0.144-0.021,0.036-0.005,0.065-0.01
		l-0.007,0.002l-0.03,0.006l-0.118,0.021l-0.238,0.046c-0.63,0.119-1.292,0.279-2.002,0.349c-0.705,0.068-1.39,0.045-2.055,0.015
		c-1.344-0.067-2.68-0.235-3.992-0.513c-2.615-0.58-5.151-1.587-7.323-3.143c-1.072-0.789-2.047-1.725-2.793-2.831
		C72.785,27.525,72.289,26.218,72.291,24.872z"/>
</g>
<polyline fill="none" stroke="#FFFFFF" stroke-width="7" stroke-miterlimit="10" points="80.004,30.676 80.004,19.568 
	87.893,15.062 87.893,27.617 "/>
<ellipse transform="matrix(0.9252 -0.3794 0.3794 0.9252 -6.064 31.9139)" fill="#1D1D1B" stroke="#FFFFFF" stroke-width="3" stroke-miterlimit="10" cx="77.941" cy="31.343" rx="2.414" ry="0.965"/>
<ellipse transform="matrix(0.9252 -0.3796 0.3796 0.9252 -4.1794 34.7161)" fill="#1D1D1B" stroke="#FFFFFF" stroke-width="3" stroke-miterlimit="10" cx="85.942" cy="27.956" rx="2.416" ry="0.964"/>
<g>
	
		<ellipse transform="matrix(0.9252 -0.3794 0.3794 0.9252 -6.064 31.9139)" fill="#1D1D1B" cx="77.941" cy="31.343" rx="2.414" ry="0.965"/>
	<path fill="#1D1D1B" d="M80.319,30.388c0.069,0.282-0.079,0.565-0.196,0.769c-0.129,0.217-0.264,0.437-0.416,0.648
		c-0.303,0.439-0.654,0.841-1.129,1.131c-0.404,0.252-0.939,0.506-1.49,0.653c-0.289,0.066-0.592,0.12-0.98,0.095
		c-0.203-0.021-0.408-0.039-0.688-0.165c-0.131-0.058-0.287-0.146-0.434-0.279c-0.076-0.072-0.147-0.14-0.214-0.231l-0.095-0.145
		l-0.043-0.075l-0.02-0.039l-0.01-0.019l-0.005-0.01l-0.052-0.148l-0.036-0.08c-0.019-0.046-0.06-0.263-0.062-0.393
		c-0.006-0.177,0.006-0.226,0.017-0.325c0.012-0.092,0.028-0.182,0.048-0.247c0.082-0.313,0.184-0.506,0.291-0.702
		c0.211-0.367,0.428-0.628,0.65-0.869c0.451-0.47,0.982-0.758,1.549-0.896c0.25-0.052,0.59-0.084,0.893-0.04
		c0.311,0.049,0.621,0.141,0.918,0.27c0.299,0.13,0.582,0.269,0.845,0.432c0.252,0.158,0.544,0.327,0.652,0.649L80.319,30.388z
		 M80.036,30.483c-0.215-0.247-0.737,0.03-1.03,0.399c-0.162,0.186-0.305,0.374-0.442,0.543c-0.143,0.168-0.239,0.291-0.421,0.41
		c-0.287,0.216-0.58,0.368-0.862,0.465c-0.142,0.042-0.271,0.097-0.336,0.103c-0.022-0.007-0.054-0.004-0.038-0.095
		c-0.004-0.013,0.003-0.045,0.006-0.079l-0.004-0.154c0.002-0.072-0.045-0.229-0.052-0.22l0.009,0.087l-0.051-0.147l-0.005-0.01
		l-0.01-0.02l-0.021-0.037c-0.015-0.025-0.032-0.048-0.052-0.069c-0.037-0.042-0.061-0.072-0.1-0.102
		c-0.066-0.053-0.123-0.073-0.15-0.081c-0.077-0.013-0.05,0.016-0.027,0.037c0.069,0.047,0.234,0.082,0.404,0.094
		c0.369,0.034,0.729,0.023,1.183-0.071c0.38-0.065,0.851-0.104,1.284-0.229c0.211-0.071,0.424-0.166,0.57-0.322
		c0.146-0.159,0.238-0.347,0.14-0.519L80.036,30.483z"/>
</g>
<g>
	
		<ellipse transform="matrix(0.9253 -0.3793 0.3793 0.9253 -6.524 12.4117)" fill="#1D1D1B" cx="28.235" cy="22.762" rx="1.545" ry="0.965"/>
	<path fill="#FFFFFF" d="M29.854,22.115c0.06,0.413-0.022,0.795-0.123,1.252c-0.118,0.464-0.334,0.919-0.781,1.225
		c-0.087,0.098-0.41,0.261-0.62,0.35c-0.24,0.1-0.504,0.178-0.809,0.209c-0.304,0.019-0.646,0.003-1.049-0.151
		c-0.202-0.082-0.412-0.191-0.619-0.371c-0.103-0.084-0.2-0.189-0.291-0.303c-0.047-0.055-0.088-0.116-0.127-0.18l-0.058-0.097
		L25.35,24l-0.013-0.024l-0.007-0.012l-0.004-0.007l-0.045-0.124l-0.037-0.053l-0.019-0.027l-0.044-0.131
		c-0.061-0.205-0.088-0.407-0.098-0.525c-0.027-0.29-0.01-0.548,0.033-0.792c0.089-0.478,0.256-0.849,0.442-1.173
		c0.388-0.64,0.955-0.995,1.553-1.117c0.206-0.022,0.651-0.047,0.938,0.074c0.316,0.114,0.619,0.302,0.877,0.542
		c0.516,0.483,0.838,1.038,0.922,1.469L29.854,22.115z M29.479,22.252c-0.187-0.206-0.586,0.071-0.718,0.512
		c-0.074,0.214-0.106,0.424-0.116,0.601c-0.042,0.181,0.084,0.253-0.02,0.354c-0.014,0.137-0.025,0.145-0.076,0.011
		c-0.03-0.073-0.049-0.159-0.064-0.319c-0.003-0.085-0.024-0.179-0.048-0.302c-0.013-0.035-0.028-0.154-0.075-0.278
		c-0.01-0.021-0.029-0.069-0.033-0.068v0.032l0.001,0.065c-0.021-0.054,0.044,0.123-0.044-0.12l-0.002-0.003l-0.004-0.005
		l-0.006-0.011l-0.014-0.021l-0.029-0.04l-0.063-0.073c-0.042-0.046-0.093-0.082-0.132-0.11c-0.094-0.058-0.16-0.076-0.219-0.078
		c-0.105,0-0.115,0.057-0.089,0.102c0.027,0.059,0.099,0.112,0.187,0.15c0.117,0.028,0.115,0.096,0.336,0.07
		c0.165,0.047,0.528,0.139,0.848,0.098c0.331-0.027,0.569-0.349,0.376-0.58L29.479,22.252z"/>
</g>
<g>
	<path fill="#FFFFFF" d="M32.342,18.925c-0.904-0.437-1.791-0.657-2.653-0.678c-0.856-0.028-1.668,0.109-2.413,0.353
		c-0.374,0.125-0.717,0.357-1.027,0.591c-0.314,0.229-0.635,0.367-1.02,0.427c-0.385,0.06-0.802,0.101-1.303,0.107
		c-0.495,0.02-1.047,0.025-1.79-0.034l-0.287-0.279c-0.063-0.756,0.117-1.393,0.406-1.95c0.281-0.57,0.695-1.041,1.178-1.418
		c0.484-0.378,1.071-0.601,1.688-0.648c0.62-0.043,1.235-0.003,1.828,0.022c0.595,0.029,1.182,0.116,1.748,0.262
		c0.564,0.165,1.104,0.389,1.603,0.664c0.99,0.57,1.82,1.366,2.312,2.287L32.342,18.925z"/>
</g>
<g>
	<path fill="#FFFFFF" d="M34.976,15.046c-1.288-0.804-2.62-1.369-4.003-1.584c-1.361-0.246-2.723-0.224-4.006,0.013
		c-0.645,0.121-1.258,0.377-1.83,0.662c-0.576,0.279-1.144,0.492-1.764,0.647c-1.255,0.303-2.533,0.647-4.354,0.928l-0.287-0.279
		c0.275-1.875,1.482-3.314,2.956-4.276c0.745-0.479,1.6-0.771,2.482-0.86c0.885-0.083,1.765-0.056,2.624-0.017
		c0.859,0.043,1.707,0.17,2.527,0.38c0.816,0.229,1.602,0.539,2.336,0.923c1.448,0.807,2.72,1.878,3.591,3.169L34.976,15.046z"/>
</g>
<g>
	<path fill="#FFFFFF" d="M38.306,10.192c-1.754-1.256-3.647-2.175-5.64-2.612c-1.973-0.47-3.988-0.542-5.92-0.271
		c-0.967,0.138-1.903,0.443-2.791,0.805c-0.891,0.356-1.767,0.675-2.679,0.97c-0.914,0.292-1.836,0.616-2.811,0.953
		c-0.969,0.35-1.967,0.733-3.12,1.095l-0.287-0.278c0.349-1.181,0.989-2.208,1.773-3.107c0.777-0.913,1.724-1.678,2.762-2.292
		c1.041-0.611,2.202-1.014,3.399-1.183c1.2-0.161,2.402-0.182,3.583-0.16c1.184,0.026,2.356,0.169,3.498,0.425
		c1.138,0.276,2.238,0.666,3.277,1.161c2.058,1.029,3.89,2.454,5.227,4.196L38.306,10.192z"/>
</g>
<g>
	
		<ellipse transform="matrix(0.9253 -0.3793 0.3793 0.9253 -6.4649 12.2372)" fill="#1D1D1B" cx="27.822" cy="22.524" rx="1.545" ry="0.965"/>
	<path fill="#1D1D1B" d="M29.394,21.893c0.077,0.391-0.024,0.765-0.154,1.168c-0.143,0.413-0.378,0.796-0.789,1.06
		c-0.104,0.089-0.386,0.223-0.585,0.297c-0.221,0.083-0.461,0.145-0.73,0.164c-0.27,0.011-0.568-0.01-0.906-0.144
		c-0.17-0.072-0.346-0.165-0.514-0.314c-0.086-0.07-0.164-0.157-0.238-0.251c-0.039-0.045-0.072-0.096-0.104-0.147l-0.047-0.079
		l-0.023-0.04l-0.01-0.021l-0.006-0.01l-0.003-0.006l-0.036-0.096l-0.032-0.055c-0.009-0.012-0.021-0.03-0.05-0.131
		c-0.047-0.164-0.07-0.328-0.076-0.428c-0.021-0.238-0.002-0.451,0.035-0.654c0.08-0.398,0.229-0.711,0.395-0.986
		c0.346-0.542,0.843-0.855,1.367-0.979c0.196-0.033,0.568-0.063,0.824,0.02c0.278,0.078,0.547,0.216,0.782,0.399
		c0.468,0.367,0.8,0.817,0.896,1.222L29.394,21.893z M29.112,21.995c-0.175-0.234-0.563-0.061-0.743,0.266
		c-0.098,0.156-0.164,0.316-0.213,0.457c-0.071,0.143-0.02,0.21-0.133,0.3c-0.176,0.265-0.346,0.225-0.488-0.272L27.5,22.651
		l-0.002-0.004l-0.004-0.006l-0.008-0.013l-0.02-0.023l-0.039-0.041c-0.025-0.025-0.057-0.044-0.08-0.059
		c-0.055-0.027-0.088-0.03-0.112-0.021c-0.042,0.019-0.008,0.071,0.054,0.108c0.063,0.047,0.157,0.084,0.264,0.105
		c0.129,0.014,0.168,0.052,0.373,0.017c0.199,0.006,0.544,0.024,0.838-0.067c0.303-0.082,0.521-0.41,0.345-0.664L29.112,21.995z"/>
</g>
<g>
	
		<ellipse transform="matrix(0.9252 -0.3796 0.3796 0.9252 -4.1794 34.7161)" fill="#1D1D1B" cx="85.942" cy="27.956" rx="2.416" ry="0.964"/>
	<path fill="#1D1D1B" d="M88.321,27c0.07,0.282-0.079,0.565-0.196,0.77c-0.13,0.216-0.264,0.436-0.417,0.647
		c-0.302,0.439-0.654,0.841-1.13,1.131c-0.404,0.252-0.939,0.506-1.489,0.652c-0.289,0.066-0.592,0.12-0.98,0.097
		c-0.203-0.022-0.406-0.039-0.687-0.164c-0.132-0.058-0.287-0.146-0.435-0.278c-0.077-0.073-0.147-0.14-0.215-0.232l-0.095-0.145
		l-0.043-0.076l-0.021-0.038l-0.01-0.02l-0.005-0.01l-0.052-0.15l-0.036-0.08c-0.02-0.051-0.059-0.264-0.061-0.394
		c-0.006-0.176,0.006-0.224,0.017-0.323c0.012-0.092,0.028-0.181,0.049-0.247c0.081-0.313,0.183-0.505,0.29-0.701
		c0.211-0.367,0.428-0.628,0.651-0.87c0.463-0.474,0.958-0.748,1.576-0.906c0.192-0.029,0.574-0.079,0.865-0.029
		c0.31,0.049,0.62,0.14,0.919,0.27c0.298,0.129,0.581,0.268,0.845,0.431c0.252,0.159,0.543,0.327,0.652,0.649L88.321,27z
		 M88.038,27.096c-0.216-0.246-0.738,0.03-1.031,0.4c-0.161,0.186-0.305,0.373-0.441,0.543c-0.156,0.173-0.211,0.278-0.448,0.421
		c-0.236,0.195-0.565,0.362-0.837,0.454c-0.142,0.041-0.271,0.097-0.336,0.103c-0.023-0.007-0.054-0.004-0.039-0.094
		c-0.003-0.013,0.004-0.045,0.006-0.079l-0.003-0.152c0.002-0.072-0.044-0.226-0.052-0.221l0.009,0.088
		c0.044,0.13-0.06-0.174-0.05-0.146l-0.003-0.005l-0.004-0.01l-0.01-0.02l-0.021-0.038c-0.016-0.024-0.033-0.048-0.052-0.069
		c-0.038-0.043-0.062-0.073-0.102-0.103c-0.066-0.053-0.122-0.073-0.15-0.08c-0.076-0.013-0.049,0.016-0.025,0.037
		c0.069,0.047,0.234,0.082,0.404,0.094c0.37,0.034,0.731,0.022,1.186-0.071c0.378-0.064,0.851-0.104,1.283-0.229
		c0.212-0.071,0.424-0.166,0.57-0.322c0.146-0.159,0.239-0.348,0.141-0.519L88.038,27.096z"/>
</g>
<g>
	<path fill="#1D1D1B" d="M79.879,30.676c-0.303-0.926-0.559-1.852-0.761-2.777L78.82,26.51l-0.236-1.388
		c-0.175-0.926-0.265-1.852-0.381-2.777c-0.133-0.925-0.18-1.851-0.25-2.777l-0.08-1.036l1.113-0.745
		c0.631-0.422,1.253-0.86,1.909-1.237l1.944-1.175c0.64-0.406,1.321-0.741,1.983-1.107l2.002-1.075l3.492-1.874l-0.273,3.742
		l-0.229,3.139c-0.126,1.046-0.239,2.092-0.389,3.139c-0.18,1.046-0.331,2.093-0.575,3.139c-0.208,1.046-0.498,2.092-0.834,3.139
		h-0.25l-0.096-12.556l0.33,0.191c-1.312,0.757-2.613,1.531-3.933,2.274l-3.962,2.223l0.105-0.182l-0.084,11.108H79.879z"/>
</g>
<g>
	<polyline fill="#FFFFFF" points="2.686,25.598 14.931,27.768 13.297,36.989 7.552,35.972 8.951,28.077 	"/>
	<path fill="#1D1D1B" d="M2.708,25.475c1.079-0.151,2.133-0.157,3.181-0.131C6.934,25.379,7.971,25.47,9,25.603
		c1.029,0.135,2.05,0.313,3.043,0.648c0.997,0.314,1.976,0.729,2.974,1.034l0.523,0.159l-0.126,0.409
		c-0.465,1.503-0.657,3.054-0.728,4.626l-0.063,2.367c-0.035,0.786-0.104,1.566-0.193,2.344l-0.123,1.065l-1.211-0.133
		c-1.938-0.214-3.875-0.423-5.771-0.869l-1.327-0.313l0.272-1.197c0.148-0.652,0.319-1.3,0.497-1.947
		c0.163-0.649,0.378-1.29,0.57-1.935c0.424-1.282,0.877-2.559,1.491-3.807l0.246,0.043c0.148,1.384,0.134,2.738,0.092,4.088
		c-0.041,0.671-0.059,1.347-0.129,2.013c-0.056,0.669-0.119,1.336-0.203,2l-1.055-1.51c1.934,0.231,3.826,0.701,5.718,1.166
		l-1.334,0.933c0.183-0.76,0.387-1.517,0.625-2.267l0.754-2.244c0.475-1.501,0.827-3.024,0.907-4.595l0.397,0.567
		c-1.042-0.057-2.104-0.003-3.148-0.051c-1.048-0.026-2.068-0.21-3.081-0.437c-1.012-0.229-2.016-0.5-3.011-0.826
		c-0.993-0.335-1.98-0.702-2.942-1.216L2.708,25.475z"/>
</g>
<g>
	<path fill="#1D1D1B" d="M1.373,34.014C2,33.922,2.615,33.897,3.237,33.836c0.618-0.038,1.232-0.057,1.842-0.054
		c0.61,0.002,1.261-0.221,1.82,0.068c0.563,0.268,1.108,0.641,1.581,1.423L8.436,35.52c-0.712,0.572-1.352,0.735-1.973,0.793
		c-0.625,0.079-1.159-0.354-1.733-0.562c-0.574-0.207-1.145-0.436-1.711-0.684c-0.563-0.271-1.132-0.506-1.689-0.808L1.373,34.014z"
		/>
</g>
<g>
	<path fill="#1D1D1B" d="M31.962,18.651c-0.853-0.495-1.724-0.807-2.61-0.879c-0.873-0.096-1.729-0.015-2.529,0.193
		c-0.824,0.215-1.438,0.821-2.23,0.968c-0.81,0.189-1.648,0.382-2.905,0.486l-0.215-0.209c0.1-1.29,0.843-2.273,1.772-2.958
		c0.944-0.727,2.221-0.692,3.333-0.675c1.133,0.008,2.254,0.267,3.233,0.766c0.966,0.518,1.813,1.224,2.354,2.086L31.962,18.651z"/>
</g>
<g>
	<path fill="#1D1D1B" d="M34.597,14.771c-1.236-0.865-2.561-1.493-3.951-1.782c-1.376-0.313-2.776-0.35-4.113-0.151
		c-0.671,0.101-1.317,0.322-1.93,0.581c-0.614,0.254-1.219,0.476-1.853,0.674c-1.285,0.383-2.554,0.864-4.18,1.347l-0.215-0.209
		c0.471-1.673,1.686-2.975,3.13-3.858c0.73-0.435,1.548-0.72,2.393-0.833c0.846-0.108,1.693-0.116,2.524-0.098
		c1.665,0.033,3.304,0.423,4.757,1.138c1.439,0.733,2.719,1.741,3.642,2.971L34.597,14.771z"/>
</g>
<g>
	<path fill="#1D1D1B" d="M37.927,9.918c-1.702-1.316-3.588-2.298-5.589-2.81c-1.984-0.537-4.04-0.667-6.026-0.435
		c-2.009,0.243-3.807,1.104-5.659,1.722c-1.875,0.652-3.677,1.521-5.757,2.467l-0.215-0.209c0.922-2.141,2.677-3.822,4.709-4.979
		c2.052-1.195,4.503-1.41,6.793-1.396c2.313-0.001,4.605,0.484,6.668,1.422c2.05,0.955,3.89,2.317,5.278,3.999L37.927,9.918z"/>
</g>
</svg>
